<svg width="96" height="96" xmlns="http://www.w3.org/2000/svg" xmlns:xlink="http://www.w3.org/1999/xlink" xml:space="preserve" overflow="hidden"><g transform="translate(-117 -324)"><path d="M199 378.911 199 345 135 345 135 340.9C134.995 336.539 131.461 333.005 127.1 333L127 333C126.448 333 126 333.448 126 334 126 334.552 126.448 335 127 335L127.1 335C130.357 335.003 132.997 337.643 133 340.9L133 391C133.005 394.702 135.891 397.76 139.586 397.979 136.531 399.865 135.583 403.87 137.469 406.924 139.354 409.979 143.359 410.927 146.414 409.041 149.469 407.156 150.417 403.151 148.531 400.096 148.007 399.247 147.294 398.53 146.448 398L183.548 398C180.505 399.905 179.584 403.916 181.489 406.959 183.395 410.001 187.406 410.923 190.448 409.018 193.491 407.112 194.412 403.101 192.507 400.059 191.985 399.226 191.281 398.522 190.448 398L198 398C198.552 398 199 397.552 199 397 199 396.448 198.552 396 198 396L140 396C137.24 395.997 135.003 393.76 135 391L135 384.911ZM187 408C184.515 408 182.5 405.985 182.5 403.5 182.5 401.015 184.515 399 187 399 189.485 399 191.5 401.015 191.5 403.5 191.497 405.984 189.484 407.997 187 408ZM143 408C140.515 408 138.5 405.985 138.5 403.5 138.5 401.015 140.515 399 143 399 145.485 399 147.5 401.015 147.5 403.5 147.497 405.984 145.484 407.997 143 408ZM135 359 149 359 149 369 135 369ZM181 369 167 369 167 359 181 359ZM183 359 197 359 197 369 183 369ZM167 371 181 371 181 378.589 167 379.9ZM165 380.089 151 381.4 151 371 165 371ZM167 357 167 347 181 347 181 357ZM165 357 151 357 151 347 165 347ZM165 359 165 369 151 369 151 359ZM135 371 149 371 149 381.589 135 382.9ZM183 378.4 183 371 197 371 197 377.089ZM197 357 183 357 183 347 197 347ZM149 347 149 357 135 357 135 347Z"/></g></svg>