<svg width="96" height="96" xmlns="http://www.w3.org/2000/svg" xmlns:xlink="http://www.w3.org/1999/xlink" xml:space="preserve" overflow="hidden"><g transform="translate(-234 -302)"><path d="M282 352C283.091 352 284.179 351.891 285.248 351.675 284.634 351.182 284.122 350.574 283.742 349.885 275.767 350.874 268.501 345.212 267.511 337.237 266.522 329.263 272.185 321.996 280.159 321.006 288.134 320.017 295.4 325.68 296.39 333.654 296.681 336.003 296.395 338.387 295.557 340.6L297.908 339.816C300.286 331.025 295.087 321.97 286.296 319.592 277.505 317.214 268.45 322.413 266.072 331.204 263.694 339.995 268.893 349.05 277.684 351.428 279.091 351.809 280.542 352.001 282 352Z"/><path d="M310.516 364.537C305.929 361.005 300.674 358.439 295.068 356.993 290.833 355.693 286.43 355.026 282 355.015 277.581 355.089 273.191 355.753 268.947 356.989 263.41 358.615 258.188 361.164 253.5 364.529 251.352 366.215 250.076 368.778 250.026 371.508L250.026 387 252.026 387 252.026 371.508C252.07 369.4 253.056 367.422 254.713 366.119 259.198 362.905 264.194 360.471 269.489 358.919 273.556 357.732 277.764 357.091 282 357.015 286.238 357.029 290.45 357.669 294.5 358.915 299.852 360.288 304.87 362.73 309.252 366.094 310.927 367.398 311.927 369.387 311.974 371.51L311.974 387 313.974 387 313.974 371.508C313.927 368.783 312.657 366.223 310.516 364.537Z"/><path d="M267.714 322C275.44 314.113 288.097 313.982 295.984 321.708 298.282 323.959 300.002 326.73 301 329.788L301 341.946 291.355 345.161C290.334 343.862 288.454 343.637 287.155 344.658 285.856 345.678 285.631 347.559 286.652 348.857 287.672 350.156 289.553 350.382 290.852 349.361 291.56 348.804 291.98 347.957 291.994 347.056L304.231 342.977C305.788 342.857 306.993 341.562 307 340L307 332C307 330.343 305.657 329 304 329L302.833 329C298.98 317.489 286.525 311.281 275.014 315.134 271.713 316.239 268.721 318.113 266.286 320.6 265.894 320.989 265.891 321.622 266.28 322.014 266.669 322.406 267.302 322.409 267.694 322.02 267.701 322.014 267.707 322.007 267.714 322ZM305 332 305 340C305 340.552 304.552 341 304 341L303 341 303 331 304 331C304.552 331 305 331.448 305 332Z"/></g></svg>