<svg width="382" height="327" xmlns="http://www.w3.org/2000/svg" xmlns:xlink="http://www.w3.org/1999/xlink" xml:space="preserve" overflow="hidden"><defs><clipPath id="clip0"><rect x="27" y="55" width="382" height="327"/></clipPath></defs><g clip-path="url(#clip0)" transform="translate(-27 -55)"><path d="M327.143 158.589 327.143 82.2604 290.762 82.2604 290.762 124.059 218 55 218 55 27.0002 236.735 47.4646 254 218 92.2556 218 92.2556 388.536 254 409 236.735Z" fill="#171717" fill-rule="evenodd"/><path d="M82.0002 246.768 82.0002 382 191.2 382 191.2 268.168 245.8 268.168 245.8 382 355 382 355 246.768 218.5 117 82.0002 246.768ZM163.9 322.807 109.3 322.807 109.3 268.168 163.9 268.168 163.9 322.807ZM273.1 268.168 327.7 268.168 327.7 322.807 273.1 322.807 273.1 268.168Z" fill="#171717" fill-rule="evenodd"/></g></svg>