<svg width="96" height="96" xmlns="http://www.w3.org/2000/svg" xmlns:xlink="http://www.w3.org/1999/xlink" xml:space="preserve" overflow="hidden"><g transform="translate(-113 -94)"><path d="M157 137C165.837 137 173 129.837 173 121 173 112.163 165.837 105 157 105 148.163 105 141 112.163 141 121 141 129.837 148.163 137 157 137ZM157 107C164.732 107 171 113.268 171 121 171 128.732 164.732 135 157 135 149.268 135 143 128.732 143 121 143.008 113.271 149.271 107.008 157 107Z"/><path d="M177.105 147.694C178.166 147.391 179.253 147.186 180.352 147.083 177.087 145.344 173.641 143.969 170.075 142.983 165.838 141.681 161.432 141.012 157 141 152.577 141.075 148.184 141.739 143.937 142.976 138.395 144.6 133.167 147.15 128.476 150.518 126.326 152.204 125.049 154.768 125 157.5L125 173 127 173 127 157.5C127.044 155.391 128.031 153.413 129.688 152.109 134.178 148.895 139.177 146.461 144.476 144.909 148.547 143.719 152.759 143.077 157 143 161.242 143.012 165.459 143.653 169.513 144.9 172.113 145.632 174.651 146.566 177.105 147.694Z"/><path d="M182 150C173.716 150 167 156.716 167 165 167 173.284 173.716 180 182 180 190.284 180 197 173.284 197 165 196.991 156.72 190.28 150.009 182 150ZM182 178C174.82 178 169 172.18 169 165 169 157.82 174.82 152 182 152 189.18 152 195 157.82 195 165 194.992 172.176 189.176 177.992 182 178Z"/><path d="M183 158 181 158 181 164 175 164 175 166 181 166 181 172 183 172 183 166 189 166 189 164 183 164 183 158Z"/></g></svg>